<svg xmlns="http://www.w3.org/2000/svg" xmlns:xlink="http://www.w3.org/1999/xlink" width="500" zoomAndPan="magnify" viewBox="0 0 375 374.999991" height="500" preserveAspectRatio="xMidYMid meet" version="1.0"><defs><g/><clipPath id="6bea0b62ac"><path d="M 144.226562 62.878906 L 170.476562 62.878906 L 170.476562 89.128906 L 144.226562 89.128906 Z M 144.226562 62.878906 " clip-rule="nonzero"/></clipPath><clipPath id="cfa90bbd60"><path d="M 144.226562 98.078125 L 170.476562 98.078125 L 170.476562 124.328125 L 144.226562 124.328125 Z M 144.226562 98.078125 " clip-rule="nonzero"/></clipPath><clipPath id="f57a7569ba"><path d="M 144.226562 130.589844 L 170.476562 130.589844 L 170.476562 156.839844 L 144.226562 156.839844 Z M 144.226562 130.589844 " clip-rule="nonzero"/></clipPath><clipPath id="2baf9447c8"><path d="M 144.226562 194.230469 L 170.476562 194.230469 L 170.476562 220.480469 L 144.226562 220.480469 Z M 144.226562 194.230469 " clip-rule="nonzero"/></clipPath><clipPath id="3d8740af2a"><path d="M 144.226562 223.882812 L 170.476562 223.882812 L 170.476562 250.132812 L 144.226562 250.132812 Z M 144.226562 223.882812 " clip-rule="nonzero"/></clipPath><clipPath id="a00c338812"><path d="M 143.929688 256.035156 L 170.179688 256.035156 L 170.179688 282.285156 L 143.929688 282.285156 Z M 143.929688 256.035156 " clip-rule="nonzero"/></clipPath><clipPath id="b324d0f98b"><path d="M 75.042969 254.207031 L 99.792969 254.207031 L 99.792969 278.957031 L 75.042969 278.957031 Z M 75.042969 254.207031 " clip-rule="nonzero"/></clipPath><clipPath id="1df29260bb"><path d="M 41.289062 244.472656 L 66.039062 244.472656 L 66.039062 269.222656 L 41.289062 269.222656 Z M 41.289062 244.472656 " clip-rule="nonzero"/></clipPath><clipPath id="840c7d39c7"><path d="M 25.046875 213.945312 L 49.046875 213.945312 L 49.046875 237.945312 L 25.046875 237.945312 Z M 25.046875 213.945312 " clip-rule="nonzero"/></clipPath><clipPath id="6c9369b116"><path d="M 41.011719 151.339844 L 65.761719 151.339844 L 65.761719 176.089844 L 41.011719 176.089844 Z M 41.011719 151.339844 " clip-rule="nonzero"/></clipPath><clipPath id="1239a0c31c"><path d="M 75.042969 143.703125 L 99.792969 143.703125 L 99.792969 168.453125 L 75.042969 168.453125 Z M 75.042969 143.703125 " clip-rule="nonzero"/></clipPath><clipPath id="ee1ec2687d"><path d="M 109.019531 143.777344 L 133.769531 143.777344 L 133.769531 168.527344 L 109.019531 168.527344 Z M 109.019531 143.777344 " clip-rule="nonzero"/></clipPath><clipPath id="a25b58f9ee"><path d="M 24.570312 183.117188 L 48.570312 183.117188 L 48.570312 207.117188 L 24.570312 207.117188 Z M 24.570312 183.117188 " clip-rule="nonzero"/></clipPath><clipPath id="7eaeb6cb6f"><path d="M 108.53125 253.789062 L 134.03125 253.789062 L 134.03125 279.289062 L 108.53125 279.289062 Z M 108.53125 253.789062 " clip-rule="nonzero"/></clipPath><clipPath id="9f56f0c964"><path d="M 144.226562 162.742188 L 170.476562 162.742188 L 170.476562 188.992188 L 144.226562 188.992188 Z M 144.226562 162.742188 " clip-rule="nonzero"/></clipPath><clipPath id="855d11a061"><path d="M 9.550781 259.109375 L 24.550781 259.109375 L 24.550781 274.109375 L 9.550781 274.109375 Z M 9.550781 259.109375 " clip-rule="nonzero"/></clipPath></defs><g clip-path="url(#6bea0b62ac)"><path fill="#000000" d="M 157.351562 62.878906 C 150.105469 62.878906 144.226562 68.757812 144.226562 76.003906 C 144.226562 83.253906 150.105469 89.128906 157.351562 89.128906 C 164.601562 89.128906 170.476562 83.253906 170.476562 76.003906 C 170.476562 68.757812 164.601562 62.878906 157.351562 62.878906 " fill-opacity="1" fill-rule="nonzero"/></g><g clip-path="url(#cfa90bbd60)"><path fill="#000000" d="M 157.351562 98.078125 C 150.105469 98.078125 144.226562 103.953125 144.226562 111.203125 C 144.226562 118.453125 150.105469 124.328125 157.351562 124.328125 C 164.601562 124.328125 170.476562 118.453125 170.476562 111.203125 C 170.476562 103.953125 164.601562 98.078125 157.351562 98.078125 " fill-opacity="1" fill-rule="nonzero"/></g><g clip-path="url(#f57a7569ba)"><path fill="#000000" d="M 157.351562 130.589844 C 150.105469 130.589844 144.226562 136.464844 144.226562 143.714844 C 144.226562 150.960938 150.105469 156.839844 157.351562 156.839844 C 164.601562 156.839844 170.476562 150.960938 170.476562 143.714844 C 170.476562 136.464844 164.601562 130.589844 157.351562 130.589844 " fill-opacity="1" fill-rule="nonzero"/></g><g clip-path="url(#2baf9447c8)"><path fill="#000000" d="M 157.351562 194.230469 C 150.105469 194.230469 144.226562 200.105469 144.226562 207.355469 C 144.226562 214.601562 150.105469 220.480469 157.351562 220.480469 C 164.601562 220.480469 170.476562 214.601562 170.476562 207.355469 C 170.476562 200.105469 164.601562 194.230469 157.351562 194.230469 " fill-opacity="1" fill-rule="nonzero"/></g><g clip-path="url(#3d8740af2a)"><path fill="#000000" d="M 157.351562 223.882812 C 150.105469 223.882812 144.226562 229.757812 144.226562 237.007812 C 144.226562 244.253906 150.105469 250.132812 157.351562 250.132812 C 164.601562 250.132812 170.476562 244.253906 170.476562 237.007812 C 170.476562 229.757812 164.601562 223.882812 157.351562 223.882812 " fill-opacity="1" fill-rule="nonzero"/></g><g clip-path="url(#a00c338812)"><path fill="#000000" d="M 157.054688 256.035156 C 149.804688 256.035156 143.929688 261.910156 143.929688 269.160156 C 143.929688 276.410156 149.804688 282.285156 157.054688 282.285156 C 164.304688 282.285156 170.179688 276.410156 170.179688 269.160156 C 170.179688 261.910156 164.304688 256.035156 157.054688 256.035156 " fill-opacity="1" fill-rule="nonzero"/></g><g clip-path="url(#b324d0f98b)"><path fill="#ffb200" d="M 87.417969 254.207031 C 80.582031 254.207031 75.042969 259.746094 75.042969 266.582031 C 75.042969 273.414062 80.582031 278.957031 87.417969 278.957031 C 94.25 278.957031 99.792969 273.414062 99.792969 266.582031 C 99.792969 259.746094 94.25 254.207031 87.417969 254.207031 " fill-opacity="1" fill-rule="nonzero"/></g><g clip-path="url(#1df29260bb)"><path fill="#ffb200" d="M 53.664062 244.472656 C 46.832031 244.472656 41.289062 250.011719 41.289062 256.847656 C 41.289062 263.683594 46.832031 269.222656 53.664062 269.222656 C 60.5 269.222656 66.039062 263.683594 66.039062 256.847656 C 66.039062 250.011719 60.5 244.472656 53.664062 244.472656 " fill-opacity="1" fill-rule="nonzero"/></g><g clip-path="url(#840c7d39c7)"><path fill="#ffb200" d="M 37.046875 213.945312 C 30.417969 213.945312 25.046875 219.316406 25.046875 225.945312 C 25.046875 232.574219 30.417969 237.945312 37.046875 237.945312 C 43.675781 237.945312 49.046875 232.574219 49.046875 225.945312 C 49.046875 219.316406 43.675781 213.945312 37.046875 213.945312 " fill-opacity="1" fill-rule="nonzero"/></g><g clip-path="url(#6c9369b116)"><path fill="#ffb200" d="M 53.386719 151.339844 C 46.550781 151.339844 41.011719 156.878906 41.011719 163.714844 C 41.011719 170.546875 46.550781 176.089844 53.386719 176.089844 C 60.222656 176.089844 65.761719 170.546875 65.761719 163.714844 C 65.761719 156.878906 60.222656 151.339844 53.386719 151.339844 " fill-opacity="1" fill-rule="nonzero"/></g><g clip-path="url(#1239a0c31c)"><path fill="#ffb200" d="M 87.417969 143.703125 C 80.582031 143.703125 75.042969 149.242188 75.042969 156.078125 C 75.042969 162.914062 80.582031 168.453125 87.417969 168.453125 C 94.25 168.453125 99.792969 162.914062 99.792969 156.078125 C 99.792969 149.242188 94.25 143.703125 87.417969 143.703125 " fill-opacity="1" fill-rule="nonzero"/></g><g clip-path="url(#ee1ec2687d)"><path fill="#ffb200" d="M 121.394531 143.777344 C 114.5625 143.777344 109.019531 149.316406 109.019531 156.152344 C 109.019531 162.988281 114.5625 168.527344 121.394531 168.527344 C 128.230469 168.527344 133.769531 162.988281 133.769531 156.152344 C 133.769531 149.316406 128.230469 143.777344 121.394531 143.777344 " fill-opacity="1" fill-rule="nonzero"/></g><g clip-path="url(#a25b58f9ee)"><path fill="#ffb200" d="M 36.570312 183.117188 C 29.941406 183.117188 24.570312 188.492188 24.570312 195.117188 C 24.570312 201.746094 29.941406 207.117188 36.570312 207.117188 C 43.199219 207.117188 48.570312 201.746094 48.570312 195.117188 C 48.570312 188.492188 43.199219 183.117188 36.570312 183.117188 " fill-opacity="1" fill-rule="nonzero"/></g><g clip-path="url(#7eaeb6cb6f)"><path fill="#ffb200" d="M 121.28125 253.789062 C 114.238281 253.789062 108.53125 259.496094 108.53125 266.539062 C 108.53125 273.582031 114.238281 279.289062 121.28125 279.289062 C 128.320312 279.289062 134.03125 273.582031 134.03125 266.539062 C 134.03125 259.496094 128.320312 253.789062 121.28125 253.789062 " fill-opacity="1" fill-rule="nonzero"/></g><g clip-path="url(#9f56f0c964)"><path fill="#000000" d="M 157.351562 162.742188 C 150.105469 162.742188 144.226562 168.617188 144.226562 175.867188 C 144.226562 183.117188 150.105469 188.992188 157.351562 188.992188 C 164.601562 188.992188 170.476562 183.117188 170.476562 175.867188 C 170.476562 168.617188 164.601562 162.742188 157.351562 162.742188 " fill-opacity="1" fill-rule="nonzero"/></g><g fill="#000000" fill-opacity="1"><g transform="translate(170.307209, 278.970797)"><g><path d="M 58.664062 -101.476562 C 27.675781 -101.476562 7.785156 -81.726562 7.785156 -49.730469 C 7.785156 -17.875 27.675781 2.019531 58.664062 2.019531 C 89.65625 2.019531 109.546875 -17.875 109.546875 -49.730469 C 109.546875 -81.726562 89.65625 -101.476562 58.664062 -101.476562 Z M 58.664062 -17.007812 C 43.675781 -17.007812 34.304688 -28.683594 34.304688 -49.730469 C 34.304688 -70.917969 43.675781 -82.449219 58.664062 -82.449219 C 73.65625 -82.449219 83.027344 -70.917969 83.027344 -49.730469 C 83.027344 -28.683594 73.65625 -17.007812 58.664062 -17.007812 Z M 58.664062 -17.007812 "/></g></g></g><g fill="#000000" fill-opacity="1"><g transform="translate(283.887068, 278.970797)"><g><path d="M 92.539062 -79.277344 L 92.539062 -99.457031 L 2.019531 -99.457031 L 2.019531 -79.277344 L 34.304688 -79.277344 L 34.304688 0 L 60.25 0 L 60.25 -79.277344 Z M 92.539062 -79.277344 "/></g></g></g><g clip-path="url(#855d11a061)"><path fill="#ffb200" d="M 17.050781 259.109375 C 12.910156 259.109375 9.550781 262.46875 9.550781 266.609375 C 9.550781 270.75 12.910156 274.109375 17.050781 274.109375 C 21.195312 274.109375 24.550781 270.75 24.550781 266.609375 C 24.550781 262.46875 21.195312 259.109375 17.050781 259.109375 " fill-opacity="1" fill-rule="nonzero"/></g></svg>